<svg viewBox="0 0 35.43 35.84" xmlns="http://www.w3.org/2000/svg" xmlns:xlink="http://www.w3.org/1999/xlink"><linearGradient id="a" gradientUnits="userSpaceOnUse" x1="404.83" x2="167.52" y1="457.28" y2="164.22"><stop offset="0" stop-color="#ffe100"/><stop offset="1" stop-color="#ed6d05"/></linearGradient><linearGradient id="b" gradientUnits="userSpaceOnUse" x1="302.17" x2="263.82" y1="303.31" y2="333.28"><stop offset="0" stop-color="#e52331"/><stop offset="1" stop-color="#ffe100"/></linearGradient><linearGradient id="c" gradientUnits="userSpaceOnUse" x1="456.64" x2="111.01" y1="156.06" y2="467.27"><stop offset="0" stop-color="#ed6d05"/><stop offset="1" stop-color="#e52331"/></linearGradient><g fill-rule="evenodd" transform="translate(-266.25 -293.62)"><path d="m281.06 318.25a.79.79 0 0 1 .68-.43.48.48 0 0 1 .5.52c0 .45-1 1.22-1.37 1.6v.23h1.7v-.29h-1.28c.41-.42 1.24-1 1.24-1.57a.74.74 0 0 0 -.8-.77 1.06 1.06 0 0 0 -.88.52zm2.7 1.71c-.28 0-.59-.31-.59-1.08s.31-1.07.59-1.07.59.3.59 1.07-.35 1.12-.59 1.12zm0-2.42c-.48 0-.87.41-.87 1.34s.39 1.34.87 1.34.87-.41.87-1.34-.39-1.34-.87-1.34zm1.35.71a.79.79 0 0 1 .68-.43.48.48 0 0 1 .5.52c0 .45-1 1.22-1.37 1.6v.23h1.7v-.29h-1.28c.41-.42 1.24-1 1.24-1.57a.74.74 0 0 0 -.8-.77 1.06 1.06 0 0 0 -.88.52zm2.17.66a.62.62 0 0 1 .39-.14.6.6 0 0 1 .63.61.62.62 0 0 1 -.67.58.63.63 0 0 1 -.55-.41l-.23.12a.86.86 0 0 0 .79.55.9.9 0 0 0 .94-.84.83.83 0 0 0 -.84-.87l.83-.92h-1.57v.29h1l-.84.91z" fill="#fff"/><path d="m271.1 311.1a15.2 15.2 0 0 0 2.35 8.15 14.22 14.22 0 0 1 -1.33-6 14.26 14.26 0 0 1 14.27-14.25 14.25 14.25 0 0 1 14.26 14.26 14.08 14.08 0 0 1 -1.33 6 15.12 15.12 0 0 0 2.36-8.15 15.29 15.29 0 0 0 -15.29-15.29 15.28 15.28 0 0 0 -15.29 15.28z" fill="url(#a)"/><path d="m291.36 302.67a12.52 12.52 0 0 1 3.28 17.39 12.51 12.51 0 0 1 -17.39 3.29 12.41 12.41 0 0 1 -3.71-3.94 13.33 13.33 0 0 0 4.75 5.74 13.42 13.42 0 0 0 18.64-3.52 13.43 13.43 0 0 0 -3.52-18.63 13.34 13.34 0 0 0 -7.08-2.32 12.6 12.6 0 0 1 5 2z" fill="url(#b)"/><path d="m266.25 311.54a17.91 17.91 0 0 0 17.91 17.91 17.82 17.82 0 0 0 9.56-2.76 16.66 16.66 0 0 1 -7.06 1.56 16.71 16.71 0 0 1 -16.66-16.71 16.72 16.72 0 0 1 16.72-16.72 16.61 16.61 0 0 1 7.05 1.56 17.81 17.81 0 0 0 -9.55-2.76 17.92 17.92 0 0 0 -17.97 17.92z" fill="url(#c)"/><g fill="#fff"><path d="m280.33 306.88v1.2h.35v-3.15h-.91a1 1 0 0 0 -1 1 .94.94 0 0 0 .8.92c-.25.1-.47.91-.9.91h-.12v.35a.62.62 0 0 0 .18 0c.74 0 .94-1.09 1.23-1.22zm-.53-.34a.65.65 0 0 1 -.69-.63.66.66 0 0 1 .69-.64h.53v1.27zm1.46 1.54h.36l.18-2.12 1.06 2.12h.14l1.06-2.12.18 2.12h.36l-.28-3.15h-.15l-1.25 2.51-1.23-2.51h-.15zm4.27-3.15h-.35v3.15h.35v-1.47h1.93v1.47h.35v-3.15h-.35v1.34h-1.93zm3.3 3.15v-1.47h.31c.39 0 .74 1.49 1.55 1.49h.19v-.35h-.12c-.6 0-.91-1.25-1.32-1.3l1.32-1.51h-.42l-1.18 1.34h-.33v-1.34h-.35v3.15z"/><path d="m280.18 309.59h-1.91l-.8 1.46-.81-1.46h-1.91l1.76 3.2-1.83 3.33h1.91l.88-1.59.87 1.59h1.91l-1.83-3.33zm6.05 0h-1.91l-.81 1.46-.8-1.46h-1.91l1.76 3.2-1.83 3.33h1.91l.87-1.59.88 1.59h1.91l-1.83-3.33zm2.48 0h-1.57v6.53h1.57zm2.44 0h-1.64l1.72 6.53h1.77l1.73-6.53h-1.65l-1 4z"/></g></g></svg>